# xmcd
#
# Track frame offsets: 
#        182
#        6515
#        27997
#        47102
#        66910
#        69167
#        92210
#        115445
#        136602
#        139962
#        159217
#        181650
#        198762
#        219740
#        240205
#        263130
#        287272
#        309412
#        322937
#
# Disc length: 4531 seconds
#
# Revision: 0
# Processed by: cddbd v1.5.2PL0 Copyright (c) Steve Scherf et al.
# Submitted via: ExactAudioCopy v0.99pb1
#
DISCID=0011b113
DTITLE=Mary J. Blidge - Share My World (Italian version)
DYEAR=1997
DGENRE=Soul
TTITLE0=Intro
TTITLE1=I Can Love You
TTITLE2=Love Is All We Need
TTITLE3=Round and Round
TTITLE4=Share My World (Interlude)
TTITLE5=Share My World
TTITLE6=Seven Days
TTITLE7=It's On
TTITLE8=Thank You Lord (Interlude)
TTITLE9=Missing You
TTITLE10=Everything
TTITLE11=Keep Your Head
TTITLE12=Can't Get You off My Mind
TTITLE13=Get to Know You Better
TTITLE14=Searching
TTITLE15=Our Love
TTITLE16=Not Goin' Cry
TTITLE17=(You Make Me Feel Like) A Natural Woman
TTITLE18=Love Is All We Need (Yhe Sottotono remix feat. Sottotono)
EXTD=
EXTT0=
EXTT1=
EXTT2=
EXTT3=
EXTT4=
EXTT5=
EXTT6=
EXTT7=
EXTT8=
EXTT9=
EXTT10=
EXTT11=
EXTT12=
EXTT13=
EXTT14=
EXTT15=
EXTT16=
EXTT17=
EXTT18=
PLAYORDER=
